<svg width="96" height="108" viewBox="0 0 96 108" fill="none" xmlns="http://www.w3.org/2000/svg">
<path d="M47.5872 108C46.5701 107.999 45.5708 107.733 44.6892 107.226L2.89503 83.1246C2.01394 82.6141 1.28268 81.8812 0.774532 80.9993C0.266384 80.1173 -0.000632107 79.1173 1.12366e-06 78.0996V29.8999C0.000796706 28.8836 0.268446 27.8854 0.776523 27.005C1.2846 26.1246 2.01514 25.3929 2.89503 24.8831L44.6892 0.773723C45.5707 0.266781 46.5701 0 47.5872 0C48.6043 0 49.6034 0.266781 50.4849 0.773723L92.2737 24.8831C93.1545 25.3921 93.8856 26.1236 94.3942 27.0041C94.9028 27.8847 95.1709 28.8833 95.1714 29.8999V78.0996C95.1709 79.1163 94.9028 80.115 94.3942 80.9955C93.8856 81.876 93.1545 82.6075 92.2737 83.1165L50.4849 107.234C49.6024 107.738 48.6035 108.002 47.5872 108ZM35.9682 37.2827C35.6993 37.3452 35.435 37.426 35.1771 37.5244L35.0467 37.5788C34.8125 37.6812 34.5854 37.7991 34.3671 37.9318L34.2446 38.0188C34.037 38.1505 33.8422 38.3015 33.6629 38.4697C33.1412 38.9624 32.7325 39.5618 32.4643 40.2271C32.2458 40.7539 32.1268 41.3167 32.1135 41.8868V42.0198C32.2746 43.9897 32.0997 45.9726 31.5968 47.8841C31.1918 49.6334 30.613 51.4017 30.0013 53.2705V53.2868C29.8219 53.83 29.6395 54.3978 29.4574 54.9655C29.0185 56.1675 28.6553 57.3958 28.3699 58.6432C28.3606 58.6855 28.349 58.7272 28.3348 58.7682C28.3097 58.8306 28.295 58.8966 28.2913 58.9637L28.0195 60.205C27.8999 60.5554 27.7884 60.9303 27.6797 61.2915L27.5818 61.6989L27.4839 62.0847C27.2274 63.229 27.08 64.3949 27.0435 65.5669V67.2238C27.1104 68.3913 27.2869 69.5499 27.5708 70.6843C28.3341 73.6686 29.847 76.4089 31.9665 78.6456C32.6926 79.4073 33.4831 80.1053 34.3289 80.7317H34.3943C34.7392 81.0151 35.1026 81.2755 35.4817 81.5112L35.7237 81.6524C36.0662 81.8616 36.4793 82.1088 36.9332 82.3342L37.1317 82.4212C38.9394 83.3177 40.8864 83.9009 42.8896 84.146H43.0011C43.3949 84.2293 43.7974 84.2632 44.1997 84.2465H46.2986C46.6711 84.2248 47.0405 84.1921 47.3858 84.146L47.9675 84.0591C48.291 84.0156 48.6229 83.9476 48.9464 83.8852L49.5852 83.7304C49.8571 83.6734 50.1505 83.5865 50.3707 83.5213L50.4849 83.4886C50.6453 83.4424 50.8057 83.3854 50.9634 83.3311H50.9797L51.1781 83.2632L52.0127 82.9563L52.7169 82.6385C52.9724 82.5217 53.2606 82.3886 53.508 82.2663C53.6711 82.1849 53.818 82.1007 53.9729 82.0083H53.9892L54.2122 81.8806L54.2364 81.8671C54.4784 81.7312 54.7257 81.5954 54.9595 81.4433L55.6176 80.9815L55.8893 80.786L56.346 80.4546C56.4271 80.3952 56.5053 80.3318 56.5799 80.2645L56.8082 80.0689L56.9522 79.9494C57.1779 79.762 57.4118 79.5664 57.6266 79.36L64.8794 72.5177L66.5486 70.9477C66.6057 70.8907 66.6545 70.8282 66.7089 70.7658L66.823 70.63V70.5539C67.6443 69.6385 68.0906 68.4475 68.0724 67.2183C68.0543 65.989 67.5731 64.8117 66.7251 63.9209C65.9208 63.1573 64.8769 62.6956 63.7704 62.6143C64.1217 62.0036 64.3567 61.3332 64.4636 60.6369C64.5859 59.9783 64.551 59.3001 64.3621 58.6573C64.1731 58.0146 63.8355 57.4254 63.3761 56.9374C63.031 56.5895 62.634 56.2972 62.1991 56.0709L62.0441 55.984C61.5608 55.7547 61.0458 55.599 60.5163 55.5222C60.9638 54.7542 61.1877 53.8766 61.1627 52.9882C61.1377 52.0998 60.8649 51.2361 60.3749 50.4945C60.2782 50.3482 60.1718 50.2085 60.0567 50.0762C59.4366 49.5217 58.6774 49.1462 57.8602 48.9897L66.6518 40.6889C67.1862 40.1878 67.6012 39.5732 67.866 38.8904C68.1309 38.2076 68.2388 37.4741 68.182 36.7441C68.1251 36.014 67.9049 35.306 67.5375 34.6724C67.1701 34.0388 66.6647 33.4958 66.0591 33.0834L65.9042 32.9965C65.6838 32.8527 65.4519 32.7273 65.2109 32.6216L65.1595 32.5972C65.064 32.5442 64.9584 32.5118 64.8495 32.5021C64.6732 32.4318 64.4912 32.3764 64.3056 32.3364C64.235 32.3364 64.1643 32.3364 64.0909 32.3364C64.0175 32.3364 63.9469 32.3364 63.8762 32.3364C63.7017 32.3079 63.5256 32.2898 63.3489 32.2821H62.4274C62.2526 32.3201 62.0799 32.3682 61.9107 32.4261C61.7813 32.452 61.6534 32.4846 61.5274 32.5238C61.3583 32.5956 61.1932 32.6763 61.0326 32.7656C60.9783 32.7955 60.9213 32.8226 60.8724 32.8444C60.8073 32.8727 60.7436 32.9044 60.6819 32.9394C60.4726 33.0777 60.2748 33.2321 60.0895 33.4012C60.0289 33.4419 59.9705 33.4864 59.9153 33.5343L44.7463 48.1069L41.669 51.0079L41.7696 48.4383L41.9216 43.0466V42.2887C41.9546 40.9851 41.4707 39.7213 40.5749 38.7729C39.6792 37.8244 38.4444 37.2683 37.14 37.2257H36.9631C36.6686 37.2321 36.3751 37.2611 36.085 37.3126L35.9682 37.2827ZM57.3491 27.5232C56.8916 27.5227 56.4504 27.6933 56.1123 28.0013L52.089 31.91C51.8341 32.168 51.6607 32.4954 51.5909 32.8512C51.5212 33.207 51.5581 33.5754 51.6968 33.9105C51.8354 34.2455 52.0699 34.5322 52.3708 34.7349C52.6716 34.9376 53.0254 35.0472 53.3882 35.05H53.4075C53.8837 35.0517 54.3416 34.8663 54.6824 34.5339L58.6838 30.6143C58.9296 30.3538 59.0936 30.0272 59.1557 29.6746C59.2178 29.3221 59.1755 28.959 59.0336 28.6303C58.8917 28.3017 58.6566 28.0217 58.3573 27.8249C58.058 27.6282 57.7074 27.5233 57.3491 27.5232ZM36.4819 27.4417C36.1105 27.4413 35.7478 27.5536 35.4416 27.7636C35.1354 27.9736 34.9001 28.2715 34.7669 28.6179C34.6338 28.9643 34.6091 29.3431 34.6959 29.7039C34.7828 30.0647 34.9772 30.3907 35.2534 30.6388L39.2874 34.5257C39.6212 34.857 40.0729 35.0426 40.5434 35.0418H40.5597C40.8021 35.0389 41.0416 34.988 41.2642 34.8919C41.4868 34.7959 41.6882 34.6566 41.8565 34.4823V34.5365C42.1995 34.1924 42.3921 33.7266 42.3921 33.2409C42.3921 32.7553 42.1995 32.2894 41.8565 31.9453L37.8004 28.004C37.6291 27.8275 37.4242 27.6871 37.1977 27.591C36.9713 27.4949 36.728 27.4451 36.4819 27.4445V27.4417ZM46.7171 22.9953C46.2306 22.996 45.7645 23.1894 45.4206 23.5331C45.0766 23.8768 44.883 24.3427 44.8823 24.8288V30.4296C44.8823 30.9159 45.0754 31.3822 45.4196 31.7261C45.7637 32.0699 46.2304 32.2631 46.7171 32.2631C47.2038 32.2631 47.6705 32.0699 48.0146 31.7261C48.3587 31.3822 48.5522 30.9159 48.5522 30.4296V24.8288C48.5515 24.3427 48.3579 23.8768 48.014 23.5331C47.67 23.1894 47.2035 22.996 46.7171 22.9953ZM35.43 80.4057V80.3296C34.6319 79.7912 33.8776 79.1909 33.1738 78.5343L34.6037 78.8357H34.7016C34.7817 78.8352 34.8598 78.8122 34.9276 78.7695C34.9953 78.7268 35.0499 78.6659 35.0849 78.5939L36.2619 76.3965L39.1842 77.3636C39.2792 77.3972 39.3829 77.398 39.4785 77.366C39.5741 77.334 39.6559 77.2711 39.7115 77.187L41.1172 74.9244L44.6022 75.2856H44.6374C44.7177 75.2856 44.7968 75.2643 44.866 75.2237C44.9353 75.1831 44.9924 75.1248 45.0316 75.0547L46.2956 72.8572L48.7424 72.439C48.7996 72.4341 48.8539 72.4114 48.8973 72.3738L50.5284 71.3633C50.5869 71.3334 50.6379 71.2904 50.677 71.2376C50.7162 71.1848 50.7424 71.1238 50.754 71.0591C50.7652 70.9944 50.7614 70.928 50.7431 70.8649C50.7247 70.8018 50.6924 70.7438 50.6482 70.6952V70.7712C50.6187 70.7199 50.5789 70.6753 50.5313 70.64C50.4838 70.6048 50.4294 70.5797 50.3717 70.5664C50.314 70.5532 50.2544 70.552 50.1962 70.5629C50.138 70.5739 50.0825 70.5967 50.0336 70.63L48.4842 71.5752L45.9124 72.0261C45.8476 72.0365 45.7861 72.0618 45.7328 72.1C45.6795 72.1382 45.6361 72.1882 45.6054 72.2462L44.3955 74.354L40.924 73.99H40.8753C40.8005 73.9901 40.7271 74.0097 40.6622 74.0468C40.5974 74.084 40.5431 74.1375 40.5052 74.2019L39.1191 76.3993L36.164 75.4105C36.062 75.3764 35.9511 75.3799 35.8514 75.4202C35.7517 75.4606 35.6696 75.5352 35.6201 75.6306L34.4324 77.8932L32.0481 77.3798C31.3519 76.5662 30.7333 75.6896 30.1997 74.7614C35.3921 74.1041 48.0519 72.0859 53.4997 67.547C53.0445 69.3448 52.1131 70.9868 50.8031 72.3005C49.2304 73.9821 47.4007 75.404 45.3824 76.5133C42.2427 78.2308 38.8949 79.5381 35.4217 80.403L35.43 80.4057ZM33.1628 78.5315L31.6297 78.2082C31.3579 77.9182 31.1009 77.6145 30.8601 77.2983C30.9356 77.2324 31.0317 77.1949 31.1319 77.1924H31.2135L32.0508 77.3717C32.2275 77.5781 32.4125 77.7846 32.5947 77.9828C32.7768 78.1811 32.9615 78.3468 33.1382 78.526L33.1628 78.5315ZM45.8175 66.227C43.6632 65.9878 41.652 65.031 40.1084 63.5107L50.0445 58.3499C50.2221 59.2723 50.2978 60.2113 50.2702 61.1503C50.3094 61.9421 50.1686 62.7325 49.8584 63.4622C49.5481 64.1918 49.0766 64.8417 48.4789 65.3631C47.7025 65.9182 46.7721 66.2173 45.8175 66.2188V66.227ZM28.729 66.227C28.4452 66.2278 28.1629 66.1856 27.8917 66.102C27.8949 64.9153 28.0196 63.7321 28.2641 62.5709L32.1649 64.6026C31.2343 65.5125 30.0238 66.082 28.729 66.2188V66.227Z" fill="#8854D0"/>
</svg>
